PathFileType	4	(X/Y/Z)	Patient4_TMGait_0pt7_02_right_02.trc.trc
DataRate	CameraRate	NumFrames	NumMarkers	Units	OrigDataRate	OrigDataStartFrame	OrigNumFrames
82.840236686391	82.840236686391	6	33	mm	82.840236686391	106	       141
Frame#	Time	Sacral			L.Shoulder			Chest			R.Shoulder			Neck			R.ASIS			L.ASIS			R.Thigh.Superior			R.Thigh.Lateral			R.Thigh.Inferior			R.Patella			L.Thigh.Superior			L.Thigh.Lateral			L.Thigh.Inferior			L.Patella			L.Shank.Superior			L.Shank.Lateral			L.Shank.Inferior			R.Shank.Superior			R.Shank.Lateral			R.Shank.Inferior			R.Heel			R.Midfoot.Superior			R.Midfoot.Lateral			R.Toe			L.Heel			L.Midfoot.Lateral			L.Midfoot.Superior			L.Toe			L.Elbow			L.Wrist			R.Elbow			R.Wrist			
		X1	Y1	Z1	X2	Y2	Z2	X3	Y3	Z3	X4	Y4	Z4	X5	Y5	Z5	X6	Y6	Z6	X7	Y7	Z7	X8	Y8	Z8	X9	Y9	Z9	X10	Y10	Z10	X11	Y11	Z11	X12	Y12	Z12	X13	Y13	Z13	X14	Y14	Z14	X15	Y15	Z15	X16	Y16	Z16	X17	Y17	Z17	X18	Y18	Z18	X19	Y19	Z19	X20	Y20	Z20	X21	Y21	Z21	X22	Y22	Z22	X23	Y23	Z23	X24	Y24	Z24	X25	Y25	Z25	X26	Y26	Z26	X27	Y27	Z27	X28	Y28	Z28	X29	Y29	Z29	X30	Y30	Z30	X31	Y31	Z31	X32	Y32	Z32	X33	Y33	Z33	

106	2.487500000000	803.626047223403	1022.590418219960	417.779462958639	1031.082405263214	1437.662004885215	243.114748635888	1119.299249867862	1354.889015506702	408.184788936604	1035.629710708085	1439.210904655728	577.325869804508	1031.754031680249	1495.863388915082	397.991169692920	1020.155579237972	952.041423919320	547.811081473656	1019.663453708983	957.121192390993	274.435442785004	1111.376864359555	798.571562501438	525.895916645919	1081.703193956900	678.730236229983	605.646650624751	1177.365114826110	645.149802397707	529.995804379354	1207.461706193531	535.579034886576	557.489688486924	1056.334723328320	747.174886371503	308.420632818161	960.367479128085	636.528810989514	250.163964598105	1036.882943279758	554.379065922060	317.061069030652	1032.380666716008	484.867409691971	328.326391587297	1001.289827812263	415.071713816419	320.777733699298	905.824265779210	304.915145429877	272.350734422425	948.905743075082	192.782776872822	346.736897256787	1139.136441496152	453.994136463463	565.470317911632	1020.100602712259	401.988434319631	620.004864859814	1024.023978034108	289.388534913673	576.866499774852	836.436711791566	207.468368307773	540.174134630452	1005.515510114054	159.797495109012	591.431945639889	894.216889853535	150.564651613056	616.436059397136	1075.228235010841	50.677942315037	619.698609881769	813.736084612250	40.418494707135	392.421503735547	887.428445876919	36.134818190067	311.658965575548	971.398494549424	96.181100272027	337.124905737658	1099.564781934723	40.332096522437	308.391046728705	1012.648527445526	1099.777206711741	98.740614158751	1231.023370514717	963.015593205043	121.977586819211	971.823308802285	1095.157073502586	694.158015302422	1083.431686319488	858.909735514467	698.305929349366	
107	2.499571428571	801.942188580772	1022.818999316530	416.910142785544	1031.765302920070	1437.807510247555	243.150283913546	1118.361261920647	1354.726211200302	408.891676795831	1033.604190476076	1439.293525914871	577.234562171610	1031.113730285801	1495.877007210987	397.870142603849	1018.035026730010	952.392100584450	548.041737499936	1018.599993950861	957.526820018716	274.419260393731	1110.404319623033	801.456301682946	525.824788875806	1082.973338978820	681.072736302649	605.653461772225	1178.723749822837	648.838587851331	529.722693264694	1211.281269864194	540.806613003425	557.441891375075	1052.364698615759	746.235651301581	308.609812168690	955.148936946472	636.824408884036	249.594441899991	1030.288139268017	553.658802344489	316.531334624999	1024.808691693115	484.410296330849	327.739369978623	993.784946480542	414.986057935512	320.118972973846	897.878799715919	305.128692565571	271.737649181782	940.680494515358	192.881625710338	346.234289012073	1146.641650084895	457.038932832989	565.474343657504	1030.915778571136	398.886091831663	620.607530603710	1040.451078158620	286.640523805852	577.236838152471	857.188853100028	194.698753650502	541.468016708894	1028.988988603425	156.473860547093	592.080037725379	918.386453296644	141.078356910945	617.394512098333	1104.675798977116	51.270457303187	619.985513090477	805.221939554078	40.655646591782	392.243348203234	878.936985974744	36.137213965762	311.587131536606	962.967768522280	96.203325306701	336.872316699828	1091.071191863025	40.261243786730	308.367008801939	1020.564489713505	1101.094323649867	96.998848584792	1245.326260201354	976.558802300960	123.085508369155	964.005851386474	1096.579180999117	694.862894400863	1056.068343894825	851.251608220573	702.239199483801	
108	2.511642857143	800.386312444750	1022.886948117780	416.351227323161	1032.354420498690	1437.733872033259	243.301608096727	1117.473379006001	1354.416389890452	409.648237860138	1031.752531583962	1439.272594773078	577.234377677548	1030.515006398403	1495.731738873317	397.816592258852	1016.103631783652	952.442694055368	548.401369598773	1017.729117551239	957.999912372101	274.468615159406	1109.140854232411	803.588326524493	525.766617178808	1083.625940879111	682.706419732004	605.686880901979	1179.307430297294	651.574296921249	529.448631426123	1214.066846373320	545.268255117492	557.320191847112	1048.463111390709	745.267544127569	308.714373682202	949.888629019861	637.109181031157	249.078724000072	1023.693632499083	552.930130119942	315.935421891195	1017.255791480576	483.986141911837	327.092840354186	986.297911848846	414.904868166424	319.440042197344	889.910684767928	305.347385256457	271.149574303122	932.461423239813	192.975199447936	345.732345522794	1153.366229771846	459.553142163829	565.481878221861	1041.570168018705	395.188378673193	621.438345329742	1056.902117025268	283.621542713645	577.821973521882	878.817417833807	181.503281046703	543.222099296058	1052.873350764583	153.225571626527	593.031198670338	943.374673096901	131.512453707471	618.753140336836	1134.447889037195	52.371142580295	620.483793233943	796.720186823605	40.902223124477	392.058292087492	870.446468046329	36.140830422920	311.517692729834	954.542573929410	96.227024042365	336.622157639524	1082.575386596852	40.191512653994	308.346601263625	1028.280545303452	1102.388894845437	95.468104041904	1258.622937858409	990.224319171112	124.599632018259	955.919510785659	1098.155958114441	695.549012709803	1029.157784045784	845.812654276165	705.411963088098	
109	2.523714285714	798.966622732812	1022.782297101765	416.106334617364	1032.810263210636	1437.429622973780	243.570600739475	1116.633065156062	1353.950926737969	410.443687525226	1030.095183411367	1439.131423120178	577.333851613391	1029.952019203145	1495.416711089566	397.840445863748	1014.392266005756	952.169183968150	548.870568019747	1016.998374860655	958.480593953512	274.598087313821	1107.617945857901	804.891296945845	525.721991944161	1083.636140413854	683.554484425013	605.750646081059	1179.132567570489	653.276155232265	529.200399120279	1215.815509365066	548.862053784369	557.113656137737	1044.656241187154	744.263532618420	308.704373936862	944.586194970101	637.371817258061	248.627957530318	1017.101684250592	552.186207958721	315.283675108906	1009.731396349140	483.588551619291	326.402554479713	978.825096363439	414.818676517620	318.761910410387	881.924394255939	305.561421134113	270.605329115338	924.247429043416	193.055323479771	345.251533799291	1159.260287068709	461.494596243035	565.483022012382	1051.996773906611	390.975973224569	622.469373917761	1073.233575759796	280.435518774603	578.584842877792	901.201146972406	168.098294420988	545.346557563898	1076.939296228152	150.209792964558	594.218276570730	968.992866032954	122.109010018691	620.453537293364	1164.243610261411	54.191740236577	621.178802635990	788.226965751807	41.146086541056	391.874758027336	861.954715932059	36.144128585836	311.453537222114	946.117659899846	96.247836238078	336.385247277005	1074.074822544664	40.124608640243	308.330511786162	1035.776905970202	1103.633571014021	94.141217145594	1270.878916785890	1003.865963717959	126.473951461646	947.489849958198	1099.918335597935	696.186170890897	1003.063250277251	842.483579839361	707.749078955219	
110	2.535785714286	797.696095980296	1022.493379350937	416.173162131800	1033.098008360650	1436.896027919566	243.956972380837	1115.834939168380	1353.330534736344	411.267810114603	1028.642482595661	1438.859934572433	577.537183750067	1029.412440984967	1494.927740232525	397.949823053255	1012.935534246528	951.563158949969	549.431926439071	1016.349366312450	958.896748380403	274.829323555304	1105.877335004766	805.312807195432	525.706314017604	1082.998607945687	683.566421747716	605.857569084616	1178.232727074340	653.892332343706	529.007896522939	1216.547085529240	551.509928286757	556.818674650573	1040.956269947398	743.214032089872	308.572461209204	939.237082898061	637.603980843345	248.254248959988	1010.503402166188	551.420947742155	314.595648351672	1002.232226555146	483.207889318361	325.689170586045	971.350116419230	414.719586661669	318.107617062065	873.915776862323	305.762472918803	270.123287804354	916.033823243369	193.115945122033	344.810768506397	1164.286722847887	462.827830604844	565.469570220901	1062.107505595442	386.327231866019	623.664518968722	1089.275732672137	277.167731770401	579.471614275029	924.146155852030	154.683378531094	547.728009467701	1100.911624366010	147.537723747258	595.541811283570	994.987869016869	113.066266866761	622.406742483483	1193.731412425010	56.876453436178	622.022146068708	779.737563403307	41.373135570257	391.703574461601	853.459174750789	36.144976787068	311.398337480293	937.686962192154	96.261142291233	336.172232303557	1065.567098661068	40.062962159551	308.319647890351	1043.024088487785	1104.811922490035	93.017287294922	1282.067171469997	1017.339750156306	128.661907339484	938.690806344287	1101.906123298980	696.770699181650	978.063138161500	841.076934115288	709.240359492895	
111	2.547857142857	796.594251474380	1022.005308078572	416.545731477218	1033.187598524449	1436.144641885121	244.458920857536	1115.069784749438	1352.564477714281	412.112009780357	1027.392027596723	1438.453652086938	577.845646026759	1028.876109115068	1494.265531551135	398.150920550628	1011.770730175838	950.629675332907	550.071189745098	1015.737597280365	959.177615008495	275.184988105633	1103.972076318462	804.827691602101	525.744869962891	1081.735301691076	682.722011840337	606.027312186690	1176.661290273212	653.402822194519	528.898703436867	1216.305682808858	553.159669042329	556.439096043739	1037.362715635649	742.106109067720	308.333731855324	933.836756910634	637.799640993940	247.969073668556	1003.883606128410	550.628329802312	313.898398591479	994.747075352568	482.830260275227	324.976369892585	963.849370296659	414.600807415500	317.500235521365	865.874761654776	305.943958971933	269.719594964181	907.814221659245	193.152630751639	344.425664349195	1168.422679497909	463.522471305004	565.435334630927	1071.788849540326	381.314280424424	624.974241829211	1104.828523761714	273.878235930065	580.412948441029	947.371593548598	141.443841412493	550.229312139529	1124.464397876181	145.268955416713	596.882171994050	1021.026506037864	104.531837225200	624.492838683512	1222.533797292278	60.474501099282	622.935506684528	771.247392890583	41.568680302698	391.556399539669	844.957252013886	36.140834741961	311.356113870679	929.244265245738	96.262705591515	335.992642979108	1057.050313983154	40.009554523154	308.314923171942	1049.981189323519	1105.914864906742	92.100704444871	1292.167956195639	1030.505492958649	131.117645872430	929.546162396412	1104.158540469576	697.318054163486	954.338326690377	841.347406762446	709.946288734860	
